<svg width="250" height="250" xmlns="http://www.w3.org/2000/svg" xml:space="preserve" version="1.1">

 <g>
  <title>Layer 1</title>
  <g id="svg_1">
   <g id="CUSTOM-Group">
    <g id="svg_2">
     <g id="svg_3">
      <path id="svg_4" fill="#ffffff" d="m189.2435,70.89886l-13.525,0l0,-12.173c0,-3.338 -2.435,-6.177 -5.734,-6.684l-87.914,-13.525c-1.95,-0.3 -3.934,0.266 -5.431,1.551c-1.497,1.285 -2.359,3.16 -2.359,5.133l0,25.698l-13.525,0c-3.735,0 -6.763,3.028 -6.763,6.763l0,32.461c0,3.735 3.028,6.763 6.763,6.763l4.013,0l8.702,88.575c0.34,3.462 3.252,6.101 6.73,6.101l89.599,0c3.479,0 6.39,-2.639 6.73,-6.101l8.702,-88.575l4.013,0c3.735,0 6.763,-3.028 6.763,-6.763l0,-32.461c-0.001,-3.735 -3.028,-6.763 -6.764,-6.763zm-101.438,-17.815l74.389,11.444l0,6.371l-74.389,0l0,-17.815zm75.863,144.952l-77.338,0l-7.972,-81.151l93.283,0l-7.973,81.151zm18.813,-94.676c-1.466,0 -113.266,0 -114.964,0l0,-18.935c2.484,0 109.965,0 114.964,0l0,18.935z"/>
     </g>
    </g>
    <g id="svg_5">
     <g id="svg_6">
      <path id="svg_7" fill="#ffffff" d="m124.9995,133.79186c-13.051,0 -23.669,10.618 -23.669,23.669c0,13.051 10.618,23.669 23.669,23.669c13.051,0 23.669,-10.618 23.669,-23.669c0,-13.051 -10.618,-23.669 -23.669,-23.669zm0,33.812c-5.593,0 -10.144,-4.55 -10.144,-10.144c0,-5.593 4.551,-10.144 10.144,-10.144c5.593,0 10.144,4.551 10.144,10.144c-0.001,5.594 -4.551,10.144 -10.144,10.144z"/>
     </g>
    </g>
   </g>
  </g>
 </g>
</svg>